#!OML:ASF X:\für Bonn\!DataBase\2005_08_11_Bastian_Final\c3d\Bastian.ASF
:FULLY-SPECIFIED
:DEGREES
143
root -3.74421 16.994 -1.47812 532.436 46.9263 -171.455
lowerback 31.9303 -1.96395 -7.04996
upperback 19.5515 -0.0343434 -1.21621
thorax 5.15406 1.10857 2.60017
lowerneck -16.6228 -14.2283 -23.9807
upperneck -5.48464 -16.2654 41.5687
head 8.37931 -6.08676 17.2281
rclavicle -2.70347e-014 1.06549e-013
rhumerus -25.4163 16.0682 -90.3123
rradius 30.8804
rwrist 4.87874
rhand -9.80694 3.27014
rfingers 7.12502
rthumb 16.1696 -26.0754
lclavicle -2.70347e-014 1.06549e-013
lhumerus 7.97867 -14.7466 -281.45
lradius 38.0489
lwrist -345.626
lhand -17.2894 -10.7379
lfingers 7.12502
lthumb 8.95613 19.052
rfemur -47.7402 0.0509795 23.0105
rtibia 79.2942
rfoot -0.245262 5.8193
rtoes -27.2019
lfemur 0.78578 6.22364 -13.0406
ltibia 42.7871
lfoot -19.1514 -13.5129
ltoes -1.06774
144
root -3.6918 17 -1.53856 532.349 46.9554 -171.523
lowerback 31.6563 -2.04542 -7.00103
upperback 19.5599 -0.129312 -1.23929
thorax 5.2703 1.05364 2.57778
lowerneck -16.5717 -14.1664 -23.9913
upperneck -5.33884 -16.2235 41.5301
head 8.39139 -6.07094 17.2364
rclavicle -6.20208e-014 7.15625e-014
rhumerus -25.9016 15.9499 -90.409
rradius 30.8132
rwrist 4.90623
rhand -9.85472 3.27724
rfingers 7.12502
rthumb 16.1235 -26.0721
lclavicle -6.20208e-014 7.15625e-014
lhumerus 8.41885 -14.9958 -281.43
lradius 38.0448
lwrist -345.613
lhand -17.2563 -10.8444
lfingers 7.12502
lthumb 8.98804 18.9441
rfemur -47.3627 0.131363 22.962
rtibia 77.6511
rfoot 0.353797 5.85058
rtoes -27.4357
lfemur 1.32732 6.19557 -13.0954
ltibia 42.4255
lfoot -19.2531 -13.4982
ltoes -1.07917
145
root -3.63917 17.0078 -1.59853 532.286 46.9855 -171.584
lowerback 31.3587 -2.12827 -6.93812
upperback 19.5867 -0.216165 -1.26014
thorax 5.41549 1.00417 2.54896
lowerneck -16.5788 -14.1244 -23.966
upperneck -5.18936 -16.2051 41.4646
head 8.41366 -6.05972 17.2121
rclavicle -1.07344e-013 2.70347e-014
rhumerus -26.2908 15.8265 -90.4668
rradius 30.7403
rwrist 4.85378
rhand -9.88888 3.3342
rfingers 7.12502
rthumb 16.0906 -26.0178
lclavicle -1.07344e-013 2.70347e-014
lhumerus 8.90552 -15.1913 -281.386
lradius 37.9792
lwrist -345.733
lhand -17.1215 -10.9553
lfingers 7.12502
lthumb 9.11811 18.8276
rfemur -46.9517 0.237598 22.9139
rtibia 75.9642
rfoot 1.08885 5.8144
rtoes -27.6636
lfemur 1.8549 6.17357 -13.1421
ltibia 42.0487
lfoot -19.357 -13.4622
ltoes -1.15628
146
root -3.58589 17.0154 -1.65952 532.201 47.0013 -171.688
lowerback 31.065 -2.21288 -6.89256
upperback 19.5985 -0.314589 -1.28936
thorax 5.54504 0.947298 2.52179
lowerneck -16.5226 -14.0457 -23.8994
upperneck -5.06254 -16.14 41.4015
head 8.39722 -6.03299 17.1938
rclavicle 2.38542e-015 -6.36111e-015
rhumerus -26.6828 15.7678 -90.5412
rradius 30.7097
rwrist 4.67662
rhand -9.91306 3.30745
rfingers 7.12502
rthumb 16.0674 -26.0464
lclavicle 2.38542e-015 -6.36111e-015
lhumerus 9.36081 -15.3852 -281.33
lradius 37.8403
lwrist -345.903
lhand -16.985 -11.1817
lfingers 7.12502
lthumb 9.2498 18.5954
rfemur -46.5032 0.329007 22.8274
rtibia 74.2349
rfoot 1.88859 5.76885
rtoes -27.9209
lfemur 2.37456 6.14157 -13.2295
ltibia 41.6717
lfoot -19.4507 -13.4462
ltoes -1.16067
147
root -3.53138 17.0213 -1.72012 532.128 47.0089 -171.79
lowerback 30.7521 -2.30098 -6.83227
upperback 19.6101 -0.413959 -1.31947
thorax 5.68177 0.890826 2.48567
lowerneck -16.4409 -13.9602 -23.8297
upperneck -4.94997 -16.0645 41.3306
head 8.36608 -6.00472 17.1726
rclavicle 3.33958e-014 6.20208e-014
rhumerus -27.0642 15.6896 -90.6119
rradius 30.7355
rwrist 4.46943
rhand -9.88005 3.24367
rfingers 7.12502
rthumb 16.0992 -26.1076
lclavicle 3.33958e-014 6.20208e-014
lhumerus 9.79625 -15.5427 -281.249
lradius 37.6617
lwrist -346.187
lhand -16.7902 -11.421
lfingers 7.12502
lthumb 9.43781 18.3476
rfemur -46.0172 0.416232 22.7413
rtibia 72.4655
rfoot 2.75017 5.6644
rtoes -28.0872
lfemur 2.87564 6.09748 -13.3155
ltibia 41.3079
lfoot -19.5527 -13.3988
ltoes -1.17289
148
root -3.47599 17.0251 -1.78121 532.059 47.0193 -171.896
lowerback 30.4301 -2.38041 -6.76227
upperback 19.6098 -0.504583 -1.3396
thorax 5.80816 0.838086 2.45195
lowerneck -16.3164 -13.876 -23.7987
upperneck -4.85011 -15.9907 41.2602
head 8.32795 -5.98341 17.1599
rclavicle -7.15625e-015 -1.59028e-015
rhumerus -27.409 15.51 -90.6331
rradius 30.7228
rwrist 4.30698
rhand -9.79996 3.25121
rfingers 7.12502
rthumb 16.1763 -26.0938
lclavicle -7.15625e-015 -1.59028e-015
lhumerus 10.2063 -15.8447 -281.213
lradius 37.4331
lwrist -346.408
lhand -16.6343 -11.656
lfingers 7.12502
lthumb 9.58817 18.1058
rfemur -45.4922 0.507506 22.652
rtibia 70.6635
rfoot 3.6631 5.56367
rtoes -28.273
lfemur 3.36091 6.05372 -13.4063
ltibia 40.9708
lfoot -19.6708 -13.3803
ltoes -1.18178
149
root -3.41936 17.026 -1.84291 531.971 47.0192 -172.007
lowerback 30.1254 -2.45967 -6.70053
upperback 19.6074 -0.598256 -1.34783
thorax 5.92708 0.782804 2.43476
lowerneck -16.2478 -13.8036 -23.7799
upperneck -4.70352 -15.9352 41.1683
head 8.31725 -5.96397 17.1349
rclavicle -5.88403e-014 6.67916e-014
rhumerus -27.746 15.405 -90.6473
rradius 30.7257
rwrist 4.0789
rhand -9.69225 3.18548
rfingers 7.12502
rthumb 16.28 -26.1511
lclavicle -5.88403e-014 6.67916e-014
lhumerus 10.5748 -16.1154 -281.148
lradius 37.1687
lwrist -346.748
lhand -16.4855 -11.8455
lfingers 7.12502
lthumb 9.73179 17.9096
rfemur -44.9045 0.596339 22.5515
rtibia 68.8413
rfoot 4.60021 5.41647
rtoes -28.4347
lfemur 3.8508 6.03944 -13.4864
ltibia 40.6742
lfoot -19.8161 -13.3792
ltoes -1.29065
150
root -3.36226 17.0254 -1.90425 531.911 47.021 -172.109
lowerback 29.7989 -2.53893 -6.61104
upperback 19.6051 -0.685299 -1.36285
thorax 6.05341 0.733578 2.39388
lowerneck -16.2063 -13.7457 -23.7433
upperneck -4.56254 -15.8983 41.0944
head 8.31874 -5.94911 17.1092
rclavicle 2.54444e-014 -3.49861e-014
rhumerus -28.0263 15.2262 -90.6464
rradius 30.6981
rwrist 3.91782
rhand -9.55773 3.1804
rfingers 7.12502
rthumb 16.4095 -26.1455
lclavicle 2.54444e-014 -3.49861e-014
lhumerus 10.948 -16.5066 -281.147
lradius 36.9127
lwrist -347.126
lhand -16.4032 -11.9099
lfingers 7.12502
lthumb 9.81113 17.8415
rfemur -44.3085 0.687608 22.4659
rtibia 67.0209
rfoot 5.54853 5.24207
rtoes -28.7859
lfemur 4.29666 6.02679 -13.5542
ltibia 40.4131
lfoot -19.9662 -13.3934
ltoes -1.24839
151
root -3.30474 17.0221 -1.96621 531.84 47.0066 -172.22
lowerback 29.4778 -2.61823 -6.52069
upperback 19.6032 -0.772404 -1.36514
thorax 6.17909 0.684042 2.3652
lowerneck -16.1518 -13.704 -23.7341
upperneck -4.44614 -15.8782 41.0192
head 8.31884 -5.94535 17.0819
rclavicle 1.66979e-014 -2.06736e-014
rhumerus -28.3044 15.1797 -90.6587
rradius 30.6875
rwrist 3.62113
rhand -9.44788 3.09342
rfingers 7.12502
rthumb 16.5153 -26.2237
lclavicle 1.66979e-014 -2.06736e-014
lhumerus 11.2927 -16.9433 -281.16
lradius 36.6805
lwrist -347.433
lhand -16.324 -11.9397
lfingers 7.12502
lthumb 9.88757 17.8081
rfemur -43.6865 0.748256 22.3782
rtibia 65.2236
rfoot 6.48199 5.07217
rtoes -29.1591
lfemur 4.73957 6.02296 -13.6264
ltibia 40.1806
lfoot -20.1595 -13.415
ltoes -1.31922
152
root -3.24554 17.018 -2.02753 531.762 46.9725 -172.355
lowerback 28.9485 -2.7196 -6.43018
upperback 19.4668 -0.860686 -1.43497
thorax 6.63803 0.625444 2.39275
lowerneck -16.1798 -13.6726 -23.7211
upperneck -4.26215 -15.8769 40.9163
head 8.35495 -5.94003 17.0365
rclavicle -6.52014e-014 4.45278e-014
rhumerus -28.5573 15.1469 -90.6604
rradius 30.6482
rwrist 3.38513
rhand -9.33975 3.06251
rfingers 7.12502
rthumb 16.6194 -26.2459
lclavicle -6.52014e-014 4.45278e-014
lhumerus 11.6106 -17.314 -281.138
lradius 36.4262
lwrist -347.835
lhand -16.2307 -11.8588
lfingers 7.12502
lthumb 9.97759 17.8847
rfemur -43.0626 0.803233 22.2633
rtibia 63.479
rfoot 7.39462 4.84734
rtoes -29.0567
lfemur 5.16197 6.02275 -13.7096
ltibia 39.9685
lfoot -20.3593 -13.4412
ltoes -1.47618
153
root -3.18501 17.0128 -2.08944 531.706 46.9376 -172.471
lowerback 28.6195 -2.79248 -6.33559
upperback 19.4475 -0.94522 -1.41643
thorax 6.75855 0.575694 2.37596
lowerneck -16.1541 -13.645 -23.7597
upperneck -4.13016 -15.8706 40.854
head 8.37799 -5.93954 17.0246
rclavicle 5.1684e-014 -3.33958e-014
rhumerus -28.7873 15.1729 -90.6621
rradius 30.5779
rwrist 3.1422
rhand -9.21675 2.98229
rfingers 7.12502
rthumb 16.7378 -26.3162
lclavicle 5.1684e-014 -3.33958e-014
lhumerus 11.8749 -17.8376 -281.157
lradius 36.256
lwrist -348.096
lhand -16.2355 -11.632
lfingers 7.12502
lthumb 9.97297 18.1118
rfemur -42.4314 0.882019 22.1402
rtibia 61.7977
rfoot 8.26316 4.51537
rtoes -28.6003
lfemur 5.57678 6.05951 -13.7547
ltibia 39.7599
lfoot -20.5543 -13.5373
ltoes -1.58047
